<svg xmlns="http://www.w3.org/2000/svg" viewBox="0 0 471 470" width="471" height="470">
	<style>
		tspan { white-space:pre }
		.shp0 { fill: #ffa600 } 
	</style>
	<path id="Layer" fill-rule="evenodd" class="shp0" d="M430.16 228.6C453.43 232.9 470.31 253.19 470.31 276.86C470.31 300.52 453.43 320.81 430.16 325.11L430.16 442.16C430.16 446.58 426.77 450.66 422.36 450.66L47.96 450.66C43.54 450.66 40.16 446.58 40.16 442.16L40.16 325.11C16.89 320.81 0 300.52 0 276.86C0 253.19 16.89 232.9 40.16 228.6L40.16 145.8C40.11 143.69 40.9 141.64 42.36 140.11C43.83 138.58 45.84 137.7 47.96 137.66L226.16 137.66L226.16 100.94C205.37 96.3 191.49 76.65 194.07 55.51C196.66 34.37 214.88 18.64 236.17 19.17C257.46 19.69 274.88 36.29 276.43 57.54C277.98 78.78 263.15 97.73 242.16 101.33L242.16 137.66L422.36 137.66C424.47 137.7 426.48 138.58 427.95 140.11C429.41 141.64 430.21 143.69 430.16 145.8L430.16 228.6ZM209.77 60.55C209.79 74.56 221.14 85.92 235.16 85.93C249.18 85.93 260.54 74.57 260.54 60.55C260.54 46.52 249.18 35.16 235.16 35.16C221.14 35.16 209.77 46.52 209.77 60.55ZM40.16 308.7L40.16 245C25.87 248.99 15.99 262.02 16 276.86C15.99 291.69 25.87 304.71 40.16 308.7ZM414.16 153.66L56.16 153.66L56.16 434.66L414.16 434.66L414.16 153.66ZM454.31 276.86C454.31 262.02 444.44 249.01 430.16 245L430.16 308.7C444.44 304.7 454.31 291.68 454.31 276.86ZM336.16 394.66C336.16 399.08 332.57 402.66 328.16 402.66L142.16 402.66C137.74 402.66 134.16 399.08 134.16 394.66L134.16 312.66C134.16 308.24 137.74 304.66 142.16 304.66L328.16 304.66C332.57 304.66 336.16 308.24 336.16 312.66L336.16 394.66ZM150.16 320.66L150.16 345.66L320.16 345.66L320.16 320.66L150.16 320.66ZM320.16 386.66L320.16 361.66L150.16 361.66L150.16 386.66L320.16 386.66ZM194.16 265.66C194.16 270.08 190.57 273.66 186.16 273.66L133.16 273.66C128.74 273.66 125.16 270.08 125.16 265.66L125.16 212.66C125.16 208.24 128.74 204.66 133.16 204.66L186.16 204.66C190.57 204.66 194.16 208.24 194.16 212.66L194.16 265.66ZM141.16 257.66L178.16 257.66L178.16 220.66L141.16 220.66L141.16 257.66ZM345.16 265.66C345.16 270.08 341.57 273.66 337.16 273.66L284.16 273.66C279.74 273.66 276.16 270.08 276.16 265.66L276.16 212.66C276.16 208.24 279.74 204.66 284.16 204.66L337.16 204.66C341.57 204.66 345.16 208.24 345.16 212.66L345.16 265.66ZM292.16 257.66L329.16 257.66L329.16 220.66L292.16 220.66L292.16 257.66Z" />
</svg>