<svg xmlns="http://www.w3.org/2000/svg" viewBox="0 0 24 24" width="24" height="24">
	<style>
		tspan { white-space:pre }
		.shp0 { fill: #ffa700 } 
	</style>
	<path id="Layer" fill-rule="evenodd" class="shp0" d="M3.58 21.2C2.16 21.2 1 20.13 1 18.72L1 2.48C1 1.14 2.16 0 3.58 0L20.35 0C21.78 0 22.93 1.14 23 2.48L23 24L20.28 21.73L18.79 20.39L17.16 18.99L17.84 21.2L3.58 21.2ZM6.5 6.95C6.5 6.95 4.66 10.1 4.66 13.97C4.66 13.97 5.68 15.71 8.47 15.78C8.47 15.78 8.87 15.24 9.28 14.78C7.72 14.31 7.11 13.37 7.11 13.37L7.63 13.64C9.16 14.26 10.78 15.04 13.67 14.57C14.28 14.44 14.89 14.31 15.49 14.04C15.89 13.84 16.38 13.64 16.91 13.3C16.91 13.3 16.3 14.24 14.67 14.71C15.01 15.17 15.48 15.71 15.48 15.71C18.27 15.65 19.35 13.91 19.41 13.98C19.41 10.11 17.57 6.96 17.57 6.96C15.92 5.76 14.38 5.7 14.09 5.7L13.9 5.88C16.01 6.48 17.03 7.42 17.03 7.42C13.97 5.92 10.67 5.83 7.65 7.02C7.18 7.22 6.91 7.35 6.91 7.35C6.91 7.35 7.92 6.35 10.17 5.82L10.03 5.68C10.03 5.68 8.33 5.62 6.5 6.95ZM14.11 5.68L14.1 5.7L14.13 5.68L14.11 5.68ZM13.02 11.44C13.02 10.7 13.6 10.1 14.31 10.1L14.31 10.1C15.02 10.1 15.6 10.7 15.6 11.43C15.6 12.17 15.02 12.77 14.31 12.77C13.6 12.77 13.02 12.17 13.02 11.44ZM9.69 12.77C8.98 12.77 8.4 12.17 8.4 11.44C8.4 10.7 8.98 10.1 9.69 10.1L9.69 10.1C10.41 10.1 10.98 10.7 10.98 11.43C10.98 12.17 10.4 12.77 9.69 12.77Z" />
</svg>