<svg xmlns="http://www.w3.org/2000/svg" viewBox="0 0 448 447" width="448" height="447">
	<style>
		tspan { white-space:pre }
		.shp0 { fill: #ffa600 } 
	</style>
	<path id="Layer" class="shp0" d="M286.5 438.66C288.53 438.07 290.54 437.48 292.54 436.84C294.23 436.29 295.89 435.71 297.56 435.13C299.53 434.45 301.49 433.75 303.44 433C305.11 432.37 306.75 431.7 308.41 431.03C310.31 430.23 312.21 429.43 314.1 428.63C315.74 427.91 317.38 427.15 319.01 426.39C320.86 425.52 322.7 424.63 324.52 423.71C326.12 422.89 327.72 422.06 329.32 421.2C331.11 420.24 332.89 419.26 334.66 418.25C336.27 417.35 337.81 416.44 339.37 415.5C341.1 414.43 342.83 413.37 344.54 412.3C346.08 411.32 347.61 410.33 349.12 409.31C350.81 408.17 352.47 406.99 354.13 405.8C355.62 404.74 357.1 403.68 358.55 402.61C360.15 401.37 361.79 400.09 363.4 398.81C364.82 397.68 366.25 396.55 367.65 395.38C369.25 394.05 370.78 392.68 372.33 391.3C373.69 390.09 375.05 388.9 376.38 387.66C377.91 386.23 379.4 384.76 380.89 383.29C382.18 382.02 383.48 380.77 384.74 379.46C384.98 379.22 385.2 378.96 385.44 378.71C367.99 369.7 349.61 362.62 330.63 357.61C320.75 389.11 303.18 417.64 279.5 440.64C280.14 440.47 280.79 440.33 281.44 440.16C283.15 439.68 284.83 439.16 286.5 438.66L286.5 438.66ZM231.82 447.05C266.05 442.19 296.05 406.46 314.94 353.7C287.64 347.59 259.79 344.3 231.82 343.91L231.82 447.05ZM447.63 231.68L351.71 231.68C351.35 269.14 345.91 306.37 335.56 342.36C356.68 348 377.05 356.11 396.27 366.52C427.83 328.49 445.89 281.07 447.63 231.68L447.63 231.68ZM231.82 215.68L335.71 215.68C335.3 179.55 330 143.65 319.96 108.94C291.03 115.54 261.48 119.06 231.82 119.45L231.82 215.68ZM231.82 0.32L231.82 103.45C259.79 103.06 287.64 99.78 314.94 93.67C296.05 40.91 266.05 5.18 231.82 0.32L231.82 0.32ZM231.82 327.91C261.48 328.31 291.03 331.83 319.96 338.43C330 303.72 335.3 267.81 335.71 231.68L231.82 231.68L231.82 327.91ZM396.27 80.84C377.05 91.25 356.68 99.36 335.56 105C345.91 141 351.35 178.23 351.71 215.68L447.63 215.68C445.89 166.3 427.82 118.88 396.27 80.84L396.27 80.84ZM385.46 68.71C385.23 68.47 385.01 68.21 384.78 67.96C383.51 66.66 382.2 65.4 380.91 64.13C379.43 62.67 377.95 61.19 376.41 59.77C375.09 58.53 373.72 57.36 372.36 56.13C370.81 54.76 369.26 53.37 367.66 52.04C366.28 50.88 364.86 49.76 363.46 48.64C361.86 47.34 360.21 46.05 358.57 44.81C357.12 43.72 355.66 42.67 354.18 41.61C352.51 40.41 350.83 39.21 349.13 38.07C347.63 37.06 346.11 36.07 344.59 35.11C342.86 34 341.14 32.91 339.38 31.85C337.83 30.93 336.27 30.01 334.71 29.13C332.92 28.1 331.13 27.11 329.32 26.14C327.72 25.34 326.12 24.47 324.52 23.67C322.68 22.74 320.82 21.84 318.92 20.96C317.32 20.2 315.7 19.46 314.05 18.74C312.15 17.9 310.24 17.14 308.33 16.34C306.68 15.67 305.04 15 303.38 14.37C301.43 13.63 299.46 12.93 297.5 12.25C295.83 11.67 294.17 11.09 292.48 10.54C290.48 9.89 288.48 9.3 286.43 8.71C284.76 8.22 283.09 7.72 281.41 7.28C280.76 7.1 280.11 6.96 279.46 6.8C303.14 29.79 320.71 58.32 330.59 89.82C349.59 84.81 368 77.73 385.46 68.71L385.46 68.71ZM0 215.68L95.92 215.68C96.29 178.23 101.72 141 112.07 105C90.96 99.37 70.58 91.26 51.36 80.84C19.8 118.88 1.74 166.3 0 215.68ZM215.82 447.05L215.82 343.91C187.85 344.31 159.99 347.59 132.7 353.7C151.57 406.46 181.59 442.19 215.82 447.05ZM215.82 231.68L111.92 231.68C112.33 267.81 117.63 303.72 127.67 338.43C156.6 331.83 186.14 328.3 215.82 327.91L215.82 231.68ZM215.82 0.32C181.59 5.18 151.57 40.91 132.7 93.67C159.99 99.79 187.85 103.06 215.82 103.45L215.82 0.32ZM215.82 119.45C186.15 119.06 156.6 115.54 127.67 108.94C117.63 143.65 112.33 179.55 111.92 215.68L215.82 215.68L215.82 119.45ZM168.11 6.79C167.46 6.96 166.82 7.09 166.17 7.26C164.47 7.71 162.8 8.22 161.11 8.71C159.11 9.29 157.11 9.88 155.1 10.52C153.4 11.07 151.73 11.66 150.05 12.24C148.1 12.93 146.14 13.62 144.2 14.36C142.53 15 140.88 15.66 139.22 16.34C137.32 17.14 135.41 17.94 133.54 18.74C131.89 19.46 130.26 20.22 128.63 20.98C126.78 21.85 124.94 22.74 123.11 23.66C121.51 24.48 119.91 25.31 118.31 26.16C116.52 27.13 114.74 28.11 112.98 29.12C111.38 30.01 109.8 30.93 108.26 31.87C106.52 32.91 104.8 34 103.09 35.07C101.55 36.05 100.02 37.04 98.51 38.07C96.82 39.2 95.16 40.39 93.5 41.57C92.02 42.64 90.54 43.7 89.08 44.77C87.44 46 85.88 47.29 84.23 48.56C82.81 49.7 81.38 50.83 79.98 52C78.38 53.32 76.86 54.69 75.32 56.06C73.95 57.28 72.57 58.46 71.24 59.72C69.72 61.14 68.24 62.61 66.75 64.07C65.46 65.35 64.15 66.61 62.89 67.91C62.66 68.16 62.43 68.42 62.19 68.67C79.64 77.68 98.02 84.76 117.01 89.77C126.88 58.29 144.45 29.77 168.11 6.79L168.11 6.79ZM66.72 383.23C68.21 384.7 69.69 386.18 71.21 387.61C72.54 388.84 73.91 390 75.27 391.23C76.82 392.61 78.38 394 79.97 395.32C81.35 396.48 82.76 397.61 84.18 398.73C85.78 400.03 87.38 401.32 89.07 402.56C90.51 403.64 91.98 404.69 93.44 405.77C95.11 406.96 96.8 408.16 98.5 409.32C100 410.32 101.52 411.31 103.04 412.28C104.77 413.39 106.5 414.48 108.26 415.53C109.8 416.46 111.36 417.37 112.92 418.26C114.71 419.29 116.5 420.28 118.31 421.24C119.91 422.04 121.51 422.91 123.11 423.71C124.95 424.64 126.81 425.54 128.71 426.42C130.31 427.18 131.94 427.92 133.59 428.64C135.48 429.48 137.39 430.24 139.3 431.04C140.95 431.71 142.59 432.38 144.26 433.01C146.2 433.76 148.17 434.45 150.14 435.13C151.8 435.71 153.46 436.3 155.15 436.84C157.15 437.49 159.15 438.09 161.21 438.68C162.87 439.16 164.54 439.66 166.22 440.11C166.87 440.29 167.53 440.42 168.18 440.59C144.5 417.59 126.93 389.06 117.05 357.56C98.06 362.57 79.68 369.65 62.23 378.67C62.46 378.91 62.69 379.16 62.92 379.41C64.12 380.71 65.41 381.96 66.72 383.23L66.72 383.23ZM51.36 366.52C70.58 356.11 90.96 348 112.07 342.36C101.72 306.37 96.29 269.14 95.92 231.68L0 231.68C1.75 281.07 19.8 328.49 51.36 366.52L51.36 366.52Z" />
</svg>