<svg xmlns="http://www.w3.org/2000/svg" viewBox="0 0 512 512" width="512" height="512">
	<style>
		tspan { white-space:pre }
		.shp0 { fill: #ffa700 } 
	</style>
	<path id="Layer" class="shp0" d="M255.97 5.33C114.62 5.33 0 120.4 0 262.35C0 375.89 73.34 472.21 175.1 506.23C187.9 508.59 192.58 500.66 192.58 493.84C192.58 487.73 192.35 471.57 192.22 450.13C121.02 465.65 105.98 415.67 105.98 415.67C94.37 385.97 77.57 378.06 77.57 378.06C54.3 362.13 79.3 362.45 79.3 362.45C104.99 364.27 118.5 388.94 118.5 388.94C141.34 428.21 178.43 416.88 193.02 410.29C195.33 393.68 201.95 382.35 209.28 375.92C152.45 369.43 92.67 347.38 92.67 248.91C92.67 220.85 102.66 197.91 119.04 179.92C116.38 173.42 107.62 147.28 121.54 111.92C121.54 111.92 143.04 105.01 191.94 138.26C212.35 132.56 234.24 129.71 256.03 129.62C277.76 129.75 299.68 132.56 320.13 138.29C368.99 105.04 390.46 111.95 390.46 111.95C404.42 147.35 395.65 173.46 393.02 179.95C409.44 197.94 419.33 220.88 419.33 248.95C419.33 347.67 359.49 369.39 302.46 375.76C311.65 383.7 319.84 399.38 319.84 423.35C319.84 457.71 319.52 485.43 319.52 493.84C319.52 500.72 324.13 508.72 337.12 506.19C438.72 472.14 512 375.86 512 262.35C512 120.4 397.38 5.33 255.97 5.33Z" />
	<g id="Layer">
	</g>
	<g id="Layer">
	</g>
	<g id="Layer">
	</g>
	<g id="Layer">
	</g>
	<g id="Layer">
	</g>
	<g id="Layer">
	</g>
	<g id="Layer">
	</g>
	<g id="Layer">
	</g>
	<g id="Layer">
	</g>
	<g id="Layer">
	</g>
	<g id="Layer">
	</g>
	<g id="Layer">
	</g>
	<g id="Layer">
	</g>
	<g id="Layer">
	</g>
	<g id="Layer">
	</g>
</svg>